<svg xmlns="http://www.w3.org/2000/svg" width="75" height="47" fill="none"><g fill="#fff" clip-path="url(#a)"><path d="M23.806 46.649h4.022V0h-4.022v46.649ZM31.485 46.721l3.949-.108c4.644-.181 5.96-.76 7.277-3.182a7.245 7.245 0 0 0 .841-3.387V23.361c0-18.48 0-18.515-.804-20.106C41.468.795 39.602 0 35.068 0h-3.583v46.721Zm7.606-42.31c.329.326.438 2.75.438 8.68v8.245h-4.022V3.977h1.573c.877 0 1.755.18 2.01.434Zm.438 29.22c0 9.293.074 9.04-2.705 9.04h-1.317V25.313h4.023v8.318ZM47.209 46.649h3.839c4.498 0 6.034-.47 7.13-2.242.696-1.157.732-1.772.732-21.082 0-19.311-.036-19.926-.731-21.083C57.082.47 55.546 0 51.048 0h-3.84v46.649Zm7.679-41.984c.512.976.512 36.343 0 37.32-.293.505-.768.686-2.012.686h-1.645V3.978h1.645c1.244 0 1.719.18 2.012.687Z"/><path fill-rule="evenodd" d="M20.143 0H0v46.721h20.143V0Zm-4.395 42.375V38.03H9.156v-4.346h6.592V21.369H9.156v-4.346h6.592V4.346H4.395v4.346h6.592v4.347H4.395v12.314h6.592v4.346H4.395v12.676h11.353Z" clip-rule="evenodd"/><path d="M65.19 36.218h-2.563v10.503h2.564v-3.984h9.522v-2.535H65.19v-3.984ZM65.19 24.99h-2.563v9.78h12.086v-9.78h-2.564v7.244h-1.465V26.44h-2.563v5.795h-2.93V24.99Z"/><path fill-rule="evenodd" d="M62.627 17.5v-1.583l12.086-4.281v2.693l-1.47.52h.005v5.556l1.465.523v2.695l-12.086-4.31v-1.59l.04-.112-.04-.112Zm8.057 1.991v-3.735l-5.255 1.862 5.255 1.873Z" clip-rule="evenodd"/><path d="m74.982 11.54-.14.05H75l-.018-.05ZM74.713 0v2.535h-5.509l2.972 1.372.004-.002.003.005.699.322v.973l-.044.093.044.093v.988l-3.443 1.589h5.274v2.535H63.946l-.235.109-.051-.109h-1.033V7.968h.75l5.768-2.662-6.003-2.77h-.515V0h12.086Z"/><path d="M72.515 4.708h.366v1.087h-.366V4.708Z"/></g><defs><clipPath id="a"><path fill="#fff" d="M0 0h75v46.721H0z"/></clipPath></defs></svg>